# xmcd CD database file
#
# Track frame offsets:
#	187
#	13745
#	27472
#	41482
#	54407
#	68300
#	82597
#	95700
#	111192
#	125370
#	139785
#	153477
#	167542
#	181700
#	195552
#	209365
#	223155
#	235385
#	248370
#	261462
#	275620
#	289920
#
# Disc length: 4035 seconds
#
# Revision: 1
# Processed by: cddbd v1.5PL3 Copyright (c) Steve Scherf et al.
# Submitted via: CDex 1.51
#
DISCID=350fc116
DTITLE=Charley Patton - The Voice of the Delta [CD 1)
DYEAR=1995
DGENRE=Blues
TTITLE0=Pony Blues
TTITLE1=Banty Rooster Blues
TTITLE2=Prayer of Death (part 1)
TTITLE3=Prayer of Death (part 2)
TTITLE4=Screamin' and Hollerin' the Blues
TTITLE5=Mississippi Bo Weavil Blues
TTITLE6=Down the Dirt Road Blues
TTITLE7=It Won't Be Long
TTITLE8=Shake It and Break It
TTITLE9=Spoonful Blues
TTITLE10=Pea Vine Blues
TTITLE11=Tom Rushen Blues
TTITLE12=Lord I'm Discouraged
TTITLE13=I'm Going Home
TTITLE14=High Water Everywhere (part 1)
TTITLE15=High Water Everywhere (part 2)
TTITLE16=Rattlesnake Blues
TTITLE17=Running Wild Blues
TTITLE18=Mean Black Cat Blues
TTITLE19=Magnolia Blues
TTITLE20=Mean Black Moan
TTITLE21=Heart Like Railroad Steel
EXTD=YEAR: 1995
EXTT0=
EXTT1=
EXTT2=
EXTT3=
EXTT4=
EXTT5=
EXTT6=
EXTT7=
EXTT8=
EXTT9=
EXTT10=
EXTT11=
EXTT12=
EXTT13=
EXTT14=
EXTT15=
EXTT16=
EXTT17=
EXTT18=
EXTT19=
EXTT20=
EXTT21=
PLAYORDER=
